<svg xmlns="http://www.w3.org/2000/svg" xmlns:xlink="http://www.w3.org/1999/xlink" width="500" zoomAndPan="magnify" viewBox="0 0 375 374.999991" height="500" preserveAspectRatio="xMidYMid meet" version="1.0"><defs><g/><clipPath id="42a0df897e"><path d="M 209.574219 120.257812 L 255 120.257812 L 255 170 L 209.574219 170 Z M 209.574219 120.257812 " clip-rule="nonzero"/></clipPath></defs><path fill="#7405c2" d="M 249.585938 158.648438 C 249.691406 158.96875 249.800781 159.289062 249.90625 159.609375 L 252.09375 165.601562 C 252.464844 165.617188 252.84375 165.636719 253.21875 165.660156 C 273.433594 166.867188 292.585938 177.769531 303.636719 196.125 C 303.417969 195.636719 303.195312 195.160156 302.960938 194.671875 C 302.628906 193.964844 302.28125 193.261719 301.921875 192.5625 C 298.613281 186.21875 294.382812 180.660156 289.46875 175.984375 C 279.386719 166.371094 266.445312 160.453125 252.84375 158.929688 C 251.761719 158.808594 250.675781 158.714844 249.585938 158.648438 Z M 249.585938 158.648438 " fill-opacity="1" fill-rule="evenodd"/><g clip-path="url(#42a0df897e)"><path fill="#8c00ed" d="M 209.441406 144.722656 C 209.546875 145.023438 209.804688 145.308594 210.214844 145.570312 C 211.191406 146.207031 213.003906 146.734375 215.390625 147.152344 C 215.476562 147.167969 215.5625 147.183594 215.640625 147.191406 C 217.039062 147.433594 218.617188 147.636719 220.332031 147.804688 C 221.671875 147.925781 223.085938 148.035156 224.566406 148.125 L 226.128906 150.273438 L 229.125 154.402344 L 231.261719 157.34375 L 231.265625 157.339844 L 235.050781 162.5625 L 237.316406 165.679688 L 238.113281 166.761719 L 239.015625 168.007812 L 239.273438 168.359375 C 239.738281 168.902344 240.433594 169.246094 241.203125 169.246094 C 242.613281 169.246094 243.753906 168.101562 243.753906 166.691406 C 243.753906 166.550781 243.742188 166.414062 243.71875 166.28125 C 243.585938 165.941406 243.445312 165.601562 243.316406 165.261719 C 243.28125 165.175781 243.246094 165.085938 243.210938 165 C 243.164062 164.882812 243.109375 164.765625 243.066406 164.644531 L 240.601562 157.890625 C 239.632812 155.015625 238.75 152.132812 237.964844 149.265625 C 237.9375 149.160156 237.910156 149.0625 237.878906 148.957031 L 254.042969 148.957031 L 254.042969 141.792969 C 252.671875 141.53125 251.292969 141.304688 249.910156 141.117188 C 247.726562 140.824219 245.523438 140.613281 243.316406 140.492188 L 237.878906 140.492188 C 237.890625 140.457031 237.902344 140.421875 237.910156 140.382812 C 238.710938 137.449219 239.613281 134.503906 240.601562 131.5625 L 242.75 125.675781 L 243.066406 124.804688 C 243.109375 124.6875 243.164062 124.570312 243.210938 124.449219 C 243.246094 124.363281 243.28125 124.273438 243.316406 124.1875 C 243.449219 123.851562 243.585938 123.507812 243.71875 123.167969 C 243.742188 123.035156 243.753906 122.898438 243.753906 122.761719 C 243.753906 121.347656 242.613281 120.207031 241.203125 120.207031 C 240.433594 120.207031 239.738281 120.550781 239.273438 121.089844 L 239.015625 121.445312 L 238.113281 122.683594 L 237.316406 123.769531 L 235.519531 126.238281 L 235.050781 126.882812 L 231.265625 132.105469 L 231.261719 132.105469 L 229.125 135.046875 L 224.566406 141.324219 C 223.085938 141.410156 221.671875 141.515625 220.332031 141.644531 C 218.617188 141.808594 217.039062 142.011719 215.640625 142.253906 C 215.5625 142.261719 215.476562 142.273438 215.390625 142.289062 C 213.003906 142.707031 211.191406 143.234375 210.214844 143.875 C 209.804688 144.136719 209.546875 144.421875 209.441406 144.722656 Z M 209.441406 144.722656 " fill-opacity="1" fill-rule="evenodd"/></g><path fill="#8c00ed" d="M 234.683594 140.492188 C 235.757812 140.433594 236.835938 140.394531 237.910156 140.382812 C 239.71875 140.359375 241.523438 140.394531 243.316406 140.492188 C 245.527344 140.609375 247.726562 140.820312 249.910156 141.117188 C 251.292969 141.304688 252.671875 141.527344 254.042969 141.789062 C 277.644531 146.246094 299.042969 161.097656 310.992188 184.046875 C 319.785156 200.941406 322.046875 219.507812 318.683594 236.863281 C 318.722656 236.5 318.757812 236.128906 318.777344 235.773438 L 318.820312 235.199219 C 318.855469 234.714844 318.886719 234.21875 318.914062 233.726562 C 318.917969 233.558594 318.929688 233.386719 318.9375 233.210938 C 318.945312 232.984375 318.957031 232.761719 318.964844 232.535156 C 318.964844 232.507812 318.964844 232.476562 318.964844 232.449219 C 318.972656 232.253906 318.980469 232.058594 318.992188 231.863281 C 318.992188 231.800781 318.992188 231.734375 318.992188 231.667969 C 318.992188 231.558594 319 231.449219 319.003906 231.339844 C 319.011719 230.984375 319.015625 230.621094 319.023438 230.257812 L 319.023438 230.242188 C 319.023438 230.058594 319.023438 229.859375 319.027344 229.667969 L 319.027344 229.351562 C 319.027344 185.113281 283.164062 149.253906 238.929688 149.253906 C 238.609375 149.253906 238.285156 149.253906 237.964844 149.261719 C 237.9375 149.15625 237.90625 149.058594 237.878906 148.953125 L 249.929688 148.953125 C 249.921875 148.953125 249.914062 148.949219 249.90625 148.949219 C 249.902344 148.949219 249.898438 148.949219 249.894531 148.949219 C 249.726562 148.929688 249.554688 148.914062 249.386719 148.890625 C 248.980469 148.847656 248.582031 148.804688 248.179688 148.773438 C 247.972656 148.746094 247.769531 148.734375 247.5625 148.714844 C 247.183594 148.683594 246.8125 148.648438 246.4375 148.628906 C 246.230469 148.613281 246.023438 148.59375 245.808594 148.585938 C 245.417969 148.5625 245.035156 148.535156 244.644531 148.515625 C 244.453125 148.511719 244.269531 148.5 244.078125 148.496094 C 243.566406 148.472656 243.058594 148.457031 242.542969 148.449219 C 242.484375 148.449219 242.417969 148.441406 242.355469 148.441406 C 241.785156 148.4375 241.210938 148.429688 240.632812 148.429688 C 240.453125 148.4375 240.273438 148.4375 240.09375 148.441406 C 239.695312 148.449219 239.296875 148.453125 238.902344 148.464844 C 238.691406 148.464844 238.476562 148.472656 238.261719 148.484375 C 237.894531 148.5 237.523438 148.511719 237.148438 148.53125 C 236.9375 148.546875 236.71875 148.550781 236.511719 148.566406 C 236.105469 148.589844 235.710938 148.613281 235.320312 148.644531 C 235.292969 148.644531 235.261719 148.648438 235.230469 148.648438 C 233.914062 145.792969 232.15625 143.167969 230.050781 140.867188 C 231.597656 140.699219 233.140625 140.574219 234.683594 140.492188 Z M 234.683594 140.492188 " fill-opacity="1" fill-rule="evenodd"/><g fill="#000000" fill-opacity="1"><g transform="translate(50.546679, 214.330767)"><g><path d="M 14.1875 -34.40625 L 14.1875 -25.75 L 28.125 -25.75 L 28.125 -17.71875 L 14.1875 -17.71875 L 14.1875 -8.34375 L 29.953125 -8.34375 L 29.953125 0 L 3.78125 0 L 3.78125 -42.75 L 29.953125 -42.75 L 29.953125 -34.40625 Z M 14.1875 -34.40625 "/></g></g></g><g fill="#000000" fill-opacity="1"><g transform="translate(81.107689, 214.330767)"><g><path d="M 14.1875 -29.171875 C 15.195312 -30.753906 16.59375 -32.03125 18.375 -33 C 20.164062 -33.976562 22.257812 -34.46875 24.65625 -34.46875 C 27.457031 -34.46875 29.992188 -33.753906 32.265625 -32.328125 C 34.546875 -30.910156 36.34375 -28.878906 37.65625 -26.234375 C 38.976562 -23.597656 39.640625 -20.535156 39.640625 -17.046875 C 39.640625 -13.554688 38.976562 -10.484375 37.65625 -7.828125 C 36.34375 -5.171875 34.546875 -3.117188 32.265625 -1.671875 C 29.992188 -0.234375 27.457031 0.484375 24.65625 0.484375 C 22.300781 0.484375 20.21875 0 18.40625 -0.96875 C 16.601562 -1.945312 15.195312 -3.207031 14.1875 -4.75 L 14.1875 16.203125 L 3.78125 16.203125 L 3.78125 -33.984375 L 14.1875 -33.984375 Z M 29.046875 -17.046875 C 29.046875 -19.648438 28.320312 -21.691406 26.875 -23.171875 C 25.4375 -24.648438 23.664062 -25.390625 21.5625 -25.390625 C 19.488281 -25.390625 17.726562 -24.640625 16.28125 -23.140625 C 14.84375 -21.640625 14.125 -19.585938 14.125 -16.984375 C 14.125 -14.390625 14.84375 -12.335938 16.28125 -10.828125 C 17.726562 -9.328125 19.488281 -8.578125 21.5625 -8.578125 C 23.625 -8.578125 25.382812 -9.335938 26.84375 -10.859375 C 28.3125 -12.390625 29.046875 -14.453125 29.046875 -17.046875 Z M 29.046875 -17.046875 "/></g></g></g><g fill="#000000" fill-opacity="1"><g transform="translate(120.070001, 214.330767)"><g><path d="M 9.015625 -37.515625 C 7.179688 -37.515625 5.6875 -38.050781 4.53125 -39.125 C 3.375 -40.195312 2.796875 -41.523438 2.796875 -43.109375 C 2.796875 -44.734375 3.375 -46.082031 4.53125 -47.15625 C 5.6875 -48.226562 7.179688 -48.765625 9.015625 -48.765625 C 10.796875 -48.765625 12.265625 -48.226562 13.421875 -47.15625 C 14.578125 -46.082031 15.15625 -44.734375 15.15625 -43.109375 C 15.15625 -41.523438 14.578125 -40.195312 13.421875 -39.125 C 12.265625 -38.050781 10.796875 -37.515625 9.015625 -37.515625 Z M 14.1875 -33.984375 L 14.1875 0 L 3.78125 0 L 3.78125 -33.984375 Z M 14.1875 -33.984375 "/></g></g></g><g fill="#000000" fill-opacity="1"><g transform="translate(135.654782, 214.330767)"><g><path d="M 1.703125 -16.984375 C 1.703125 -20.515625 2.421875 -23.597656 3.859375 -26.234375 C 5.304688 -28.878906 7.316406 -30.910156 9.890625 -32.328125 C 12.472656 -33.753906 15.425781 -34.46875 18.75 -34.46875 C 23.007812 -34.46875 26.570312 -33.347656 29.4375 -31.109375 C 32.300781 -28.878906 34.179688 -25.734375 35.078125 -21.671875 L 23.984375 -21.671875 C 23.054688 -24.273438 21.253906 -25.578125 18.578125 -25.578125 C 16.660156 -25.578125 15.132812 -24.832031 14 -23.34375 C 12.863281 -21.863281 12.296875 -19.742188 12.296875 -16.984375 C 12.296875 -14.222656 12.863281 -12.101562 14 -10.625 C 15.132812 -9.144531 16.660156 -8.40625 18.578125 -8.40625 C 21.253906 -8.40625 23.054688 -9.703125 23.984375 -12.296875 L 35.078125 -12.296875 C 34.179688 -8.316406 32.289062 -5.191406 29.40625 -2.921875 C 26.53125 -0.648438 22.976562 0.484375 18.75 0.484375 C 15.425781 0.484375 12.472656 -0.222656 9.890625 -1.640625 C 7.316406 -3.066406 5.304688 -5.097656 3.859375 -7.734375 C 2.421875 -10.367188 1.703125 -13.453125 1.703125 -16.984375 Z M 1.703125 -16.984375 "/></g></g></g><g fill="#000000" fill-opacity="1"><g transform="translate(170.112047, 214.330767)"><g><path d="M 1.703125 -17.046875 C 1.703125 -20.535156 2.359375 -23.597656 3.671875 -26.234375 C 4.992188 -28.878906 6.789062 -30.910156 9.0625 -32.328125 C 11.34375 -33.753906 13.882812 -34.46875 16.6875 -34.46875 C 19.082031 -34.46875 21.179688 -33.976562 22.984375 -33 C 24.796875 -32.03125 26.1875 -30.753906 27.15625 -29.171875 L 27.15625 -33.984375 L 37.5625 -33.984375 L 37.5625 0 L 27.15625 0 L 27.15625 -4.8125 C 26.144531 -3.226562 24.734375 -1.945312 22.921875 -0.96875 C 21.117188 0 19.019531 0.484375 16.625 0.484375 C 13.863281 0.484375 11.34375 -0.234375 9.0625 -1.671875 C 6.789062 -3.117188 4.992188 -5.171875 3.671875 -7.828125 C 2.359375 -10.484375 1.703125 -13.554688 1.703125 -17.046875 Z M 27.15625 -16.984375 C 27.15625 -19.585938 26.429688 -21.640625 24.984375 -23.140625 C 23.546875 -24.640625 21.796875 -25.390625 19.734375 -25.390625 C 17.660156 -25.390625 15.898438 -24.648438 14.453125 -23.171875 C 13.015625 -21.691406 12.296875 -19.648438 12.296875 -17.046875 C 12.296875 -14.453125 13.015625 -12.390625 14.453125 -10.859375 C 15.898438 -9.335938 17.660156 -8.578125 19.734375 -8.578125 C 21.796875 -8.578125 23.546875 -9.328125 24.984375 -10.828125 C 26.429688 -12.335938 27.15625 -14.390625 27.15625 -16.984375 Z M 27.15625 -16.984375 "/></g></g></g><g fill="#000000" fill-opacity="1"><g transform="translate(209.07436, 214.330767)"><g><path d="M 22.71875 -8.828125 L 22.71875 0 L 17.421875 0 C 13.640625 0 10.691406 -0.921875 8.578125 -2.765625 C 6.472656 -4.617188 5.421875 -7.632812 5.421875 -11.8125 L 5.421875 -25.328125 L 1.28125 -25.328125 L 1.28125 -33.984375 L 5.421875 -33.984375 L 5.421875 -42.265625 L 15.828125 -42.265625 L 15.828125 -33.984375 L 22.65625 -33.984375 L 22.65625 -25.328125 L 15.828125 -25.328125 L 15.828125 -11.6875 C 15.828125 -10.675781 16.070312 -9.945312 16.5625 -9.5 C 17.050781 -9.050781 17.863281 -8.828125 19 -8.828125 Z M 22.71875 -8.828125 "/></g></g></g><g fill="#000000" fill-opacity="1"><g transform="translate(231.416704, 214.330767)"><g><path d="M 9.015625 -37.515625 C 7.179688 -37.515625 5.6875 -38.050781 4.53125 -39.125 C 3.375 -40.195312 2.796875 -41.523438 2.796875 -43.109375 C 2.796875 -44.734375 3.375 -46.082031 4.53125 -47.15625 C 5.6875 -48.226562 7.179688 -48.765625 9.015625 -48.765625 C 10.796875 -48.765625 12.265625 -48.226562 13.421875 -47.15625 C 14.578125 -46.082031 15.15625 -44.734375 15.15625 -43.109375 C 15.15625 -41.523438 14.578125 -40.195312 13.421875 -39.125 C 12.265625 -38.050781 10.796875 -37.515625 9.015625 -37.515625 Z M 14.1875 -33.984375 L 14.1875 0 L 3.78125 0 L 3.78125 -33.984375 Z M 14.1875 -33.984375 "/></g></g></g><g fill="#000000" fill-opacity="1"><g transform="translate(247.001485, 214.330767)"><g><path d="M 19.234375 0.484375 C 15.910156 0.484375 12.914062 -0.222656 10.25 -1.640625 C 7.59375 -3.066406 5.503906 -5.097656 3.984375 -7.734375 C 2.460938 -10.367188 1.703125 -13.453125 1.703125 -16.984375 C 1.703125 -20.472656 2.472656 -23.546875 4.015625 -26.203125 C 5.554688 -28.867188 7.664062 -30.910156 10.34375 -32.328125 C 13.03125 -33.753906 16.035156 -34.46875 19.359375 -34.46875 C 22.691406 -34.46875 25.695312 -33.753906 28.375 -32.328125 C 31.050781 -30.910156 33.160156 -28.867188 34.703125 -26.203125 C 36.242188 -23.546875 37.015625 -20.472656 37.015625 -16.984375 C 37.015625 -13.492188 36.234375 -10.421875 34.671875 -7.765625 C 33.109375 -5.109375 30.976562 -3.066406 28.28125 -1.640625 C 25.582031 -0.222656 22.566406 0.484375 19.234375 0.484375 Z M 19.234375 -8.53125 C 21.222656 -8.53125 22.914062 -9.257812 24.3125 -10.71875 C 25.71875 -12.175781 26.421875 -14.265625 26.421875 -16.984375 C 26.421875 -19.703125 25.738281 -21.789062 24.375 -23.25 C 23.019531 -24.71875 21.347656 -25.453125 19.359375 -25.453125 C 17.328125 -25.453125 15.640625 -24.726562 14.296875 -23.28125 C 12.960938 -21.84375 12.296875 -19.742188 12.296875 -16.984375 C 12.296875 -14.265625 12.953125 -12.175781 14.265625 -10.71875 C 15.585938 -9.257812 17.242188 -8.53125 19.234375 -8.53125 Z M 19.234375 -8.53125 "/></g></g></g><g fill="#000000" fill-opacity="1"><g transform="translate(283.406878, 214.330767)"><g><path d="M 24.484375 -34.34375 C 28.460938 -34.34375 31.632812 -33.050781 34 -30.46875 C 36.375 -27.894531 37.5625 -24.351562 37.5625 -19.84375 L 37.5625 0 L 27.21875 0 L 27.21875 -18.453125 C 27.21875 -20.722656 26.628906 -22.488281 25.453125 -23.75 C 24.273438 -25.007812 22.691406 -25.640625 20.703125 -25.640625 C 18.710938 -25.640625 17.128906 -25.007812 15.953125 -23.75 C 14.773438 -22.488281 14.1875 -20.722656 14.1875 -18.453125 L 14.1875 0 L 3.78125 0 L 3.78125 -33.984375 L 14.1875 -33.984375 L 14.1875 -29.46875 C 15.238281 -30.96875 16.65625 -32.15625 18.4375 -33.03125 C 20.226562 -33.90625 22.242188 -34.34375 24.484375 -34.34375 Z M 24.484375 -34.34375 "/></g></g></g></svg>